# xmcd CD database file
#
# Track frame offsets:
#	150
#	18230
#	34402
#	49072
#	61540
#	73675
#	85912
#	98387
#	105975
#	122365
#	133057
#	151622
#	160362
#	168525
#	176817
#	182350
#	191630
#	203635
#	212757
#	225742
#	236625
#	250927
#	264205
#	278162
#	297840
#	309392
#	322137
#
# Disc length: 4426 seconds
#
# Revision: 7
# Processed by: cddbd v1.5.1PL2 Copyright (c) Steve Scherf et al.
# Submitted via: CDex 1.51
#
DISCID=6c11481b
DTITLE=Various Artist - Disney's BEST SONG SELECTION
DYEAR=1995
DGENRE=Country
TTITLE0=サークル・オブ・ライフ（ライオンキング）
TTITLE1=カラー・オブ・ザ・ウィンド（ポカホンタス）
TTITLE2=アンダー・ザ・シー(リトル・マーメイド)
TTITLE3=美女と野獣(美女と野獣)
TTITLE4=ホール・ニュー・ワールド<新しい世界>(アラジン)
TTITLE5=ハイ・ホー(白雪姫)
TTITLE6=夢はひそかに(シンデレラ)
TTITLE7=ハイ・ディドゥル・ディー・ディー(ピノキオ)
TTITLE8=いつか王子様が(白雪姫)
TTITLE9=ジッパ・ディー・ドゥー・ダー(南部の唄)
TTITLE10=4月の雨(バンビ)
TTITLE11=スーパーカリフラジリスティックエクスピアリドーシャス(メリー・ポピンズ)
TTITLE12=これが恋かしら(シンデレラ)
TTITLE13=デビー・クロケットの唄(デビー・クロケット)
TTITLE14=ダルマシアン・プランテーション(101匹わんちゃん)
TTITLE15=チム・チム・チェリー(メリー・ポピンズ)
TTITLE16=ケイシー・ジュニア(ダンボ)
TTITLE17=ビビディ・バビディ・ブー(シンデレラ)
TTITLE18=きみもとべるよ！(ピーターパン)
TTITLE19=私の赤ちゃん(ダンボ)
TTITLE20=いつか夢で(眠れる森の美女)
TTITLE21=くまのプーさん(くまのプーさん)
TTITLE22=不思議の国のアリス(不思議の国のアリス)
TTITLE23=お砂糖ひとさじで(メリー・ポピンズ)
TTITLE24=星に願いを(ピノキオ)
TTITLE25=ララルー(わんわん物語)
TTITLE26=右から2番目の星(ピーターパン)
EXTD=YEAR: 1995
EXTT0=
EXTT1=
EXTT2=
EXTT3=
EXTT4=
EXTT5=
EXTT6=
EXTT7=
EXTT8=
EXTT9=
EXTT10=
EXTT11=
EXTT12=
EXTT13=
EXTT14=
EXTT15=
EXTT16=
EXTT17=
EXTT18=
EXTT19=
EXTT20=
EXTT21=
EXTT22=
EXTT23=
EXTT24=
EXTT25=
EXTT26=
PLAYORDER=
